<mxfile host="app.diagrams.net" modified="2023-05-17T08:30:11.667Z" agent="Mozilla/5.0 (X11; Linux x86_64) AppleWebKit/537.36 (KHTML, like Gecko) Chrome/113.0.0.0 Safari/537.36" etag="JU7fK6jZlogBuuNypNhS" version="21.1.8" type="github">
  <diagram name="第 1 页" id="_9-gkPCaSc8fATGQFfkU">
    <mxGraphModel dx="1050" dy="570" grid="1" gridSize="10" guides="1" tooltips="1" connect="1" arrows="1" fold="1" page="1" pageScale="1" pageWidth="827" pageHeight="1169" math="0" shadow="0">
      <root>
        <mxCell id="0" />
        <mxCell id="1" parent="0" />
        <mxCell id="5mLjRdq9RxA-bwPX8hsz-12" style="edgeStyle=orthogonalEdgeStyle;rounded=0;orthogonalLoop=1;jettySize=auto;html=1;exitX=0.5;exitY=1;exitDx=0;exitDy=0;entryX=0.5;entryY=0;entryDx=0;entryDy=0;" edge="1" parent="1" source="5mLjRdq9RxA-bwPX8hsz-13" target="5mLjRdq9RxA-bwPX8hsz-17">
          <mxGeometry relative="1" as="geometry" />
        </mxCell>
        <mxCell id="5mLjRdq9RxA-bwPX8hsz-13" value="用户进程" style="rounded=1;whiteSpace=wrap;html=1;" vertex="1" parent="1">
          <mxGeometry x="187.5" y="70" width="120" height="60" as="geometry" />
        </mxCell>
        <mxCell id="5mLjRdq9RxA-bwPX8hsz-14" style="edgeStyle=orthogonalEdgeStyle;rounded=0;orthogonalLoop=1;jettySize=auto;html=1;exitX=0.25;exitY=1;exitDx=0;exitDy=0;entryX=0.25;entryY=1;entryDx=0;entryDy=0;" edge="1" parent="1" source="5mLjRdq9RxA-bwPX8hsz-17" target="5mLjRdq9RxA-bwPX8hsz-17">
          <mxGeometry relative="1" as="geometry" />
        </mxCell>
        <mxCell id="5mLjRdq9RxA-bwPX8hsz-15" style="edgeStyle=orthogonalEdgeStyle;rounded=0;orthogonalLoop=1;jettySize=auto;html=1;exitX=0.25;exitY=1;exitDx=0;exitDy=0;entryX=0.75;entryY=0;entryDx=0;entryDy=0;" edge="1" parent="1" source="5mLjRdq9RxA-bwPX8hsz-17" target="5mLjRdq9RxA-bwPX8hsz-19">
          <mxGeometry relative="1" as="geometry" />
        </mxCell>
        <mxCell id="5mLjRdq9RxA-bwPX8hsz-16" style="edgeStyle=orthogonalEdgeStyle;rounded=0;orthogonalLoop=1;jettySize=auto;html=1;exitX=0.75;exitY=1;exitDx=0;exitDy=0;entryX=0.75;entryY=0;entryDx=0;entryDy=0;" edge="1" parent="1" source="5mLjRdq9RxA-bwPX8hsz-17" target="5mLjRdq9RxA-bwPX8hsz-21">
          <mxGeometry relative="1" as="geometry" />
        </mxCell>
        <mxCell id="5mLjRdq9RxA-bwPX8hsz-17" value="VFS" style="rounded=1;whiteSpace=wrap;html=1;" vertex="1" parent="1">
          <mxGeometry x="187.5" y="150" width="120" height="60" as="geometry" />
        </mxCell>
        <mxCell id="5mLjRdq9RxA-bwPX8hsz-18" style="edgeStyle=orthogonalEdgeStyle;rounded=0;orthogonalLoop=1;jettySize=auto;html=1;exitX=0.75;exitY=1;exitDx=0;exitDy=0;entryX=0.25;entryY=0;entryDx=0;entryDy=0;" edge="1" parent="1" source="5mLjRdq9RxA-bwPX8hsz-19" target="5mLjRdq9RxA-bwPX8hsz-21">
          <mxGeometry relative="1" as="geometry" />
        </mxCell>
        <mxCell id="5mLjRdq9RxA-bwPX8hsz-19" value="内核文件系统" style="rounded=1;whiteSpace=wrap;html=1;" vertex="1" parent="1">
          <mxGeometry x="130" y="230" width="120" height="60" as="geometry" />
        </mxCell>
        <mxCell id="5mLjRdq9RxA-bwPX8hsz-20" style="edgeStyle=orthogonalEdgeStyle;rounded=0;orthogonalLoop=1;jettySize=auto;html=1;exitX=0.5;exitY=1;exitDx=0;exitDy=0;entryX=0.5;entryY=0;entryDx=0;entryDy=0;" edge="1" parent="1" source="5mLjRdq9RxA-bwPX8hsz-21" target="5mLjRdq9RxA-bwPX8hsz-22">
          <mxGeometry relative="1" as="geometry" />
        </mxCell>
        <mxCell id="5mLjRdq9RxA-bwPX8hsz-21" value="设备驱动程序" style="rounded=1;whiteSpace=wrap;html=1;" vertex="1" parent="1">
          <mxGeometry x="187.5" y="310" width="120" height="60" as="geometry" />
        </mxCell>
        <mxCell id="5mLjRdq9RxA-bwPX8hsz-22" value="/dev/sda" style="rounded=1;whiteSpace=wrap;html=1;" vertex="1" parent="1">
          <mxGeometry x="187.5" y="390" width="120" height="60" as="geometry" />
        </mxCell>
      </root>
    </mxGraphModel>
  </diagram>
</mxfile>
